<svg width="360" height="774" viewBox="0 0 360 774" fill="none" xmlns="http://www.w3.org/2000/svg">
<g clip-path="url(#clip0_5806_591296)">
<rect width="360" height="774" fill="#492B7C"/>
<path d="M57.6606 582.367L57.6537 582.367L-13.9672 544.492L-85.5881 582.367L-85.5949 582.367L-208 647.097L-208 647.1L180.066 647.1L180.066 647.097L57.6606 582.367Z" fill="#492B7C"/>
<path d="M445.725 582.366L445.718 582.366L374.097 544.492L302.476 582.366L302.469 582.366L180.064 647.097L180.064 647.1L568.13 647.1L568.13 647.097L445.725 582.366Z" fill="#492B7C"/>
<path d="M568.131 402.335L568.131 647.097L445.726 582.367L374.099 544.489L302.471 582.367L180.066 647.097L57.6606 582.367L-13.9672 544.489L-85.5949 582.367L-208 647.097L-208 402.335L-13.9672 504.943L180.066 402.335L374.099 504.943L568.131 402.335Z" fill="#492B7C"/>
<path d="M374.099 426.162L180.066 323.532L-13.9672 426.162L-208 323.532L-208 402.335L-13.9671 504.943L180.066 402.335L374.099 504.943L568.131 402.335L568.131 323.531L374.099 426.162Z" fill="#492B7C"/>
<path d="M180.066 323.532L-13.9671 426.159L-208 323.532L-13.9672 220.946L180.066 323.532Z" fill="#492B7C"/>
<path d="M568.135 323.531L374.102 426.159L180.069 323.531L374.102 220.946L568.135 323.531Z" fill="#492B7C"/>
<path d="M568.131 244.77L568.131 323.531L374.099 220.946L180.066 323.532L-13.9672 220.946L-208 323.532L-208 244.77L-13.9672 142.162L180.066 244.77L374.099 142.162L568.131 244.77Z" fill="#41266E"/>
<path d="M568.131 0.00530882L568.131 244.77L374.099 142.162L180.066 244.77L-13.9672 142.162L-208 244.771L-208 0.00543213L-13.9672 102.614L180.066 0.00537047L374.099 102.614L568.131 0.00530882Z" fill="#3C2365"/>
<path d="M-208 0L180.066 -7.67932e-05L180.066 0.241019L-13.9672 102.849L-208 0.241096L-208 0Z" fill="#36205C"/>
<path d="M180.069 0L568.134 -6.78516e-05L568.134 0.241028L374.102 102.849L180.069 0.241096L180.069 0Z" fill="#36205C"/>
</g>
<defs>
<clipPath id="clip0_5806_591296">
<rect width="360" height="774" fill="white"/>
</clipPath>
</defs>
</svg>
