<svg width="360" height="660" viewBox="0 0 360 660" fill="none" xmlns="http://www.w3.org/2000/svg">
<g clip-path="url(#clip0_5806_591347)">
<rect width="360" height="660" fill="#41266E"/>
<path d="M563 530.687L563 692.25L171 947.392L-221 692.25L-221 530.687L563 530.687Z" fill="#492B7C"/>
<path d="M563 691.65L-221 691.65L171 436.509L563 691.65Z" fill="#41266E"/>
<path d="M563 83.0252L563 691.649L171 436.507L-221 691.649L-221 83.0251L171 338.167L563 83.0252Z" fill="#492B7C"/>
<path d="M563 -112.919L563 83.0294L171 338.171L-221 83.0294L-221 -112.919L171 142.275L563 -112.919Z" fill="#41266E"/>
<path d="M563 -112.922L171 142.272L-221 -112.922L171 -368.011L563 -112.922Z" fill="#3C2365"/>
</g>
<defs>
<clipPath id="clip0_5806_591347">
<rect width="360" height="660" fill="white"/>
</clipPath>
</defs>
</svg>
